PERFORMER "Armin van Buuren"
TITLE "Essential Mix (2007-10-27) (Live at Cream's 15th Birthday, Liverpool)"
FILE "01 Armin van Buuren - Live at Cream's 15th Birthday, Liverpool (Essential Mix 27-10-2007)-TT.mp3" MP3
  TRACK 01 AUDIO
    PERFORMER "John O'Callaghan feat. Audrey Gallagher"
    TITLE "Big Sky (Intro Edit)"
    INDEX 01 00:00:00
  TRACK 02 AUDIO
    PERFORMER "Paul van Dyk & Starkillers & Austin Leeds feat. Ashley Tomberlin"
    TITLE "New York City"
    INDEX 01 07:18:50
  TRACK 03 AUDIO
    PERFORMER "Markus Schulz"
    TITLE "Cause You Know (Nic Chagall Remix)"
    INDEX 01 13:48:50
  TRACK 04 AUDIO
    PERFORMER "Hybrid"
    TITLE "Finished Symphony (Deadmau5 Remix) (Armin van Buuren Edit)"
    INDEX 01 18:37:00
  TRACK 05 AUDIO
    PERFORMER "Peter Martijn Wijnia"
    TITLE "Not The End"
    INDEX 01 24:04:00
  TRACK 06 AUDIO
    PERFORMER "D. Ramirez & Mark Knight"
    TITLE "Colombian Soul (Gabriel & Dresden Tuscan Soul Reconstruction)"
    INDEX 01 30:08:00
  TRACK 07 AUDIO
    PERFORMER "Armin van Buuren"
    TITLE "The Sound of Goodbye (Nic Chagall's Drumbeat Re-Edit)"
    INDEX 01 35:33:00
  TRACK 08 AUDIO
    PERFORMER "Markus Schulz"
    TITLE "Fly To Colors (Genix Remix)"
    INDEX 01 42:03:00
  TRACK 09 AUDIO
    PERFORMER "The Doppler Effect"
    TITLE "Beauty Hides In The Deep (John O'Callaghan Remix)"
    INDEX 01 44:40:00
  TRACK 10 AUDIO
    PERFORMER "Aly & Fila"
    TITLE "Lost Language"
    INDEX 01 50:23:00